<svg width="1691" height="641" viewBox="0 0 1691 641" fill="none" xmlns="http://www.w3.org/2000/svg">
<path d="M664.272 192.029V418.858H333.72L498.569 34.5152L664.272 192.029Z" fill="#FFFEFE" stroke="#2F2F2F" stroke-width="20"/>
<path fill-rule="evenodd" clip-rule="evenodd" d="M377.187 162.07L446.692 0H197.504L26.9901 162.07H377.187ZM355.177 213.392H0V453.203L179.229 623.534L355.177 213.392Z" fill="#3BAFDA"/>
<path d="M620.9 490.128L472.8 630.914H242.752L303.145 490.128H620.9Z" fill="#FFFEFE" stroke="#2F2F2F" stroke-width="20"/>
<path fill-rule="evenodd" clip-rule="evenodd" d="M895.471 308.68C895.471 285.893 899.207 258.954 924.303 258.954C949.854 258.954 954.043 285.905 954.043 311.469C954.043 337.032 949.854 361.662 925.211 361.662C899.207 361.662 895.471 337.032 895.471 308.68ZM781.623 526.209H898.74V397.471H899.661C917.779 423.463 941.501 434.176 972.616 434.176C1045.57 434.176 1075.79 377.005 1075.79 311.469C1075.79 241.302 1046.98 180.863 969.36 180.863C931.255 180.863 907.546 194.352 891.282 230.615H890.348V186.427H781.597V526.209H781.623ZM1198.43 186.427V241.29H1199.35C1213.3 206.894 1236.54 180.85 1273.24 180.85C1280.21 180.85 1287.65 181.797 1292.29 183.172V280.342C1286.74 277.994 1276.48 276.606 1265.82 276.606C1233.27 276.606 1205.86 304.932 1205.86 340.742V428.56H1088.75V186.414H1198.43V186.427Z" fill="#3BAFDA"/>
<path d="M1316.46 430.457H1392.87V288.426C1392.87 264.676 1406.77 249.519 1426.77 249.519C1446.62 249.519 1459.74 263.426 1459.74 285.613V430.457H1533.18V287.176C1533.18 264.207 1545.84 249.519 1566.93 249.519C1586.31 249.519 1600.06 262.488 1600.06 286.394V430.457H1676.46V268.894C1676.46 218.113 1645.21 187.332 1599.9 187.332C1564.43 187.332 1536.46 205.926 1527.56 234.519H1525.06C1518.65 205.769 1492.87 187.332 1459.59 187.332C1426.77 187.332 1401.77 205.301 1391.77 234.519H1389.12V190.457H1316.46V430.457Z" fill="#FFFEFE"/>
<path d="M1316.46 430.457H1306.46V440.457H1316.46V430.457ZM1392.87 430.457V440.457H1402.87V430.457H1392.87ZM1459.74 430.457H1449.74V440.457H1459.74V430.457ZM1533.18 430.457V440.457H1543.18V430.457H1533.18ZM1600.06 430.457H1590.06V440.457H1600.06V430.457ZM1676.46 430.457V440.457H1686.46V430.457H1676.46ZM1527.56 234.519V244.519H1534.92L1537.1 237.493L1527.56 234.519ZM1525.06 234.519L1515.3 236.694L1517.04 244.519H1525.06V234.519ZM1391.77 234.519V244.519H1398.92L1401.24 237.758L1391.77 234.519ZM1389.12 234.519H1379.12V244.519H1389.12V234.519ZM1389.12 190.457H1399.12V180.457H1389.12V190.457ZM1316.46 190.457V180.457H1306.46V190.457H1316.46ZM1316.46 440.457H1392.87V420.457H1316.46V440.457ZM1402.87 430.457V288.426H1382.87V430.457H1402.87ZM1402.87 288.426C1402.87 278.473 1405.77 271.266 1409.81 266.691C1413.77 262.217 1419.45 259.519 1426.77 259.519V239.519C1414.1 239.519 1402.83 244.4 1394.83 253.442C1386.92 262.382 1382.87 274.629 1382.87 288.426H1402.87ZM1426.77 259.519C1434.26 259.519 1439.71 262.073 1443.35 266.024C1447.06 270.054 1449.74 276.472 1449.74 285.613H1469.74C1469.74 272.567 1465.86 260.938 1458.05 252.468C1450.17 243.919 1439.14 239.519 1426.77 239.519V259.519ZM1449.74 285.613V430.457H1469.74V285.613H1449.74ZM1459.74 440.457H1533.18V420.457H1459.74V440.457ZM1543.18 430.457V287.176H1523.18V430.457H1543.18ZM1543.18 287.176C1543.18 277.461 1545.85 270.633 1549.63 266.368C1553.28 262.251 1558.84 259.519 1566.93 259.519V239.519C1553.93 239.519 1542.61 244.132 1534.66 253.1C1526.84 261.922 1523.18 273.922 1523.18 287.176H1543.18ZM1566.93 259.519C1574.33 259.519 1579.8 261.938 1583.47 265.843C1587.19 269.797 1590.06 276.342 1590.06 286.394H1610.06C1610.06 272.541 1606.04 260.648 1598.04 252.141C1590 243.585 1578.91 239.519 1566.93 239.519V259.519ZM1590.06 286.394V430.457H1610.06V286.394H1590.06ZM1600.06 440.457H1676.46V420.457H1600.06V440.457ZM1686.46 430.457V268.894H1666.46V430.457H1686.46ZM1686.46 268.894C1686.46 241.438 1677.98 218.393 1662.39 202.146C1646.77 185.871 1624.89 177.332 1599.9 177.332V197.332C1620.23 197.332 1636.62 204.183 1647.96 215.994C1659.32 227.834 1666.46 245.57 1666.46 268.894H1686.46ZM1599.9 177.332C1560.98 177.332 1528.47 197.951 1518.01 231.546L1537.1 237.493C1544.45 213.901 1567.88 197.332 1599.9 197.332V177.332ZM1527.56 224.519H1525.06V244.519H1527.56V224.519ZM1534.82 232.345C1527.2 198.178 1496.63 177.332 1459.59 177.332V197.332C1489.11 197.332 1510.1 213.361 1515.3 236.694L1534.82 232.345ZM1459.59 177.332C1422.64 177.332 1393.74 197.888 1382.31 231.281L1401.24 237.758C1409.81 212.713 1430.91 197.332 1459.59 197.332V177.332ZM1391.77 224.519H1389.12V244.519H1391.77V224.519ZM1399.12 234.519V190.457H1379.12V234.519H1399.12ZM1389.12 180.457H1316.46V200.457H1389.12V180.457ZM1306.46 190.457V430.457H1326.46V190.457H1306.46Z" fill="#2F2F2F"/>
</svg>
