<svg width="1691" height="641" viewBox="0 0 1691 641" fill="none" xmlns="http://www.w3.org/2000/svg">
<path fill-rule="evenodd" clip-rule="evenodd" d="M318.55 428.858H674.272V187.737L495.043 17.3666L318.55 428.858Z" fill="#FFFEFE"/>
<path d="M39.5082 157.07L199.501 5H439.107L373.891 157.07H39.5082ZM5 451.057V218.392H347.591L177.466 614.961L5 451.057Z" fill="#3BAFDA" stroke="#FFFEFE" stroke-width="10"/>
<path fill-rule="evenodd" clip-rule="evenodd" d="M296.554 480.128L227.58 640.914H476.794L645.933 480.128H296.554Z" fill="#FFFEFE"/>
<path d="M893.74 397.471V521.209H786.597V191.427H885.348V230.615V235.615H890.348H891.282H894.52L895.844 232.661C903.697 215.152 913.125 203.623 924.77 196.388C936.44 189.137 950.876 185.863 969.36 185.863C1006.68 185.863 1031.71 200.285 1047.6 222.743C1063.69 245.463 1070.79 276.952 1070.79 311.469C1070.79 343.566 1063.38 373.071 1047.54 394.42C1031.87 415.558 1007.61 429.176 972.616 429.176C957.635 429.176 944.716 426.599 933.467 421.081C922.24 415.575 912.402 407.006 903.762 394.612L902.27 392.471H899.661H898.74H893.74V397.471ZM1193.43 241.29V246.29H1198.43H1199.35H1202.72L1203.99 243.168C1217.61 209.559 1239.54 185.85 1273.24 185.85C1278.2 185.85 1283.33 186.361 1287.29 187.12V273.634C1281.13 272.285 1273.42 271.606 1265.82 271.606C1230.24 271.606 1200.86 302.442 1200.86 340.742V423.56H1093.75V191.414H1193.43V241.29ZM924.303 253.954C917.078 253.954 911.064 255.914 906.229 259.506C901.448 263.057 898.152 267.954 895.874 273.317C891.383 283.889 890.471 297.191 890.471 308.68C890.471 322.85 891.364 337.039 895.998 347.783C898.365 353.27 901.796 358.081 906.763 361.492C911.75 364.917 917.894 366.662 925.211 366.662C932.245 366.662 938.167 364.889 942.985 361.506C947.768 358.148 951.111 353.453 953.442 348.17C958.023 337.79 959.043 324.328 959.043 311.469C959.043 298.598 958.019 284.591 953.353 273.662C950.985 268.116 947.583 263.128 942.688 259.534C937.743 255.904 931.622 253.954 924.303 253.954Z" fill="#3BAFDA" stroke="#FFFEFE" stroke-width="10"/>
<path d="M1316.46 430.457H1392.87V288.426C1392.87 264.676 1406.77 249.519 1426.77 249.519C1446.62 249.519 1459.74 263.426 1459.74 285.613V430.457H1533.18V287.176C1533.18 264.207 1545.84 249.519 1566.93 249.519C1586.31 249.519 1600.06 262.488 1600.06 286.394V430.457H1676.46V268.894C1676.46 218.113 1645.21 187.332 1599.9 187.332C1564.43 187.332 1536.46 205.926 1527.56 234.519H1525.06C1518.65 205.769 1492.87 187.332 1459.59 187.332C1426.77 187.332 1401.77 205.301 1391.77 234.519H1389.12V190.457H1316.46V430.457Z" fill="#FFFEFE"/>
</svg>
